<svg id="Layer_1" data-name="Layer 1" xmlns="http://www.w3.org/2000/svg" viewBox="0 0 1629 2340"><defs><style>.cls-1{fill:#fff;}</style></defs><path class="cls-1" d="M127.73,259.85s-17.12-15.63-11.91-87.45c0,0,3-27.16,20.1-30.14V125.52h13.39s5.95-2.23,8.93-11.91h17.12s4.09-5.21,2.23-6-93.77,0-93.77,0l4.47,103.81S90.05,244.12,94,250c0,0,1.68,12.83,11.44,19.81a44.88,44.88,0,0,0,16.19,0l8.06-9Z"/><path class="cls-1" d="M1459.73,107.38s2.23,5,7,5.3,19,0,19,0-.84,10.33,8.37,10h7.54V148.4s3.35,1.4,3.62,9.49h11.45s13.11,3.35,14.23,27.63-.28,37.4-4.75,48-18.69,10-18.69,10,3.63,17.58,11.44,19.53a16.46,16.46,0,0,0,14.51,3.07c8.65-2.23,12-10.05,15.63-21.21s6.14-19,7.25-30.14,5-109.11,5-109.11l-101.58-.28"/></svg>